<?xml version="1.0" encoding="utf-8"?>
<!-- Generator: Adobe Illustrator 25.2.0, SVG Export Plug-In . SVG Version: 6.00 Build 0)  -->
<svg version="1.1" id="Calque_1" xmlns="http://www.w3.org/2000/svg" xmlns:xlink="http://www.w3.org/1999/xlink" x="0px" y="0px"
	 viewBox="0 0 447.9 448" style="enable-background:new 0 0 447.9 448;" xml:space="preserve">
<g id="Calque_2_1_" fill="#ffffff">
	<path d="M272.6,119.4v33.1c2.7-1.6,5.7-2.4,8.8-2.4c4.6,0,8.9,1.8,12.2,5.1c3.2,3.2,5,7.6,5,12.2V211l7.4-7.4l0,0
		c1.6-1.6,4.3-1.6,5.9,0c0.8,0.8,1.2,1.9,1.2,3s-0.4,2.2-1.2,3l-13.3,13.3v31.7l0.9-0.7l46.7-46.5c10.5-10.4,17.7-23.7,20.9-38.1
		l6.7-30.2c0.2-0.8,0.6-1.5,1.1-2l13.4-13.7l-58-58.2l-13.8,13.4c-0.8,0.7-1.8,1.2-2.8,1.2c-19.6,0.7-38.2,8.4-52.5,21.8
		c3.4,1.6,6.2,4.1,8.3,7.3C271.5,111.9,272.6,115.6,272.6,119.4L272.6,119.4z"/>
	<path d="M447.9,89.4V0h-75.8l-47.5,47.5l82.6,82.7L447.9,89.4z"/>
	<path d="M59.6,123.2L73,136.7l0,0c0.6,0.6,1,1.2,1.1,2l6.7,30.2c3.1,14.5,10.4,27.8,20.9,38.3l35.4,35.4v-32l-1.1-1.2
		c-0.8-0.8-1.3-1.9-1.2-3c0-1.1,0.4-2.2,1.2-3c0.4-0.4,0.8-0.7,1.3-0.9c0.5-4.9,2.7-9.4,6.2-12.8s8.1-5.4,13-5.8
		c4.9-0.3,9.7,1.1,13.6,4v-57.6c0-5.1,2.1-10.1,5.7-13.7c3.6-3.6,8.6-5.7,13.7-5.7c3.2,0,6.4,0.8,9.2,2.4l-10.1-10.1
		c-14.5-14.5-33.9-22.9-54.3-23.7c-1.1-0.1-2-0.5-2.8-1.2l-13.7-13.5L59.6,123.2z"/>
	<path d="M123.4,47.6L75.9,0.1H0v89.4l40.8,40.8L123.4,47.6z"/>
	<path d="M189.6,119.5c-6.2,0-11.2,5-11.2,11.2v116.9c0,2.3-1.9,4.2-4.2,4.2s-4.2-1.9-4.2-4.2v-42.9c0-6.8-5.5-12.3-12.3-12.3
		s-12.3,5.5-12.3,12.3v70.6c0,15.9,4.5,31.4,13.1,44.8l17.8,28l0,0c0.4,0.7,0.6,1.5,0.6,2.2v20.9h88.9V350c0-1.1,0.4-2.1,1.1-2.9
		c15-16.1,23.4-37.3,23.4-59.4V167.3c0.2-2.5-0.6-4.9-2.3-6.7c-1.7-1.8-4-2.8-6.5-2.8s-4.8,1-6.5,2.8s-2.5,4.2-2.3,6.7v77
		c0,2.3-1.9,4.2-4.2,4.2c-2.3,0-4.2-1.9-4.2-4.2v-125c0-6.2-5-11.2-11.2-11.2s-11.2,5-11.2,11.2v112.3c0,2.3-1.9,4.2-4.2,4.2
		c-2.3,0-4.2-1.9-4.2-4.2V108.4c0-6.7-5.4-12.1-12.1-12.1s-12.1,5.4-12.1,12.1v127.1c0,2.3-1.9,4.2-4.2,4.2c-2.3,0-4.2-1.9-4.2-4.2
		v-105C200.6,124.4,195.7,119.5,189.6,119.5L189.6,119.5z"/>
	<path d="M157.8,379.5h125V448h-125V379.5z"/>
</g>
</svg>
