<?xml version="1.0" encoding="utf-8"?>
<!-- Generator: Adobe Illustrator 25.2.0, SVG Export Plug-In . SVG Version: 6.00 Build 0)  -->
<svg version="1.1" id="Calque_1" xmlns="http://www.w3.org/2000/svg" xmlns:xlink="http://www.w3.org/1999/xlink" x="0px" y="0px"
	 viewBox="0 0 671 446" style="enable-background:new 0 0 671 446;" xml:space="preserve">
<style type="text/css">
	.st0{fill:#436C7C;}
</style>
<g>
	<path class="st0" d="M648.9,87.8h-63.2L305,10.5c-2.2-0.7-4.7-0.7-7,0L15.7,88.3C9.9,89.9,6,95,6,100.9c0,5.9,3.9,11.2,9.7,12.7
		L298,191.4c1.2,0.3,2.4,0.5,3.5,0.5c1.2,0,2.4-0.3,3.4-0.5l280.8-77.4h49.9v211.6c0,7.3,5.9,13.1,13.1,13.1
		c7.2,0,13.1-5.9,13.1-13.1V100.9C662,93.7,656.1,87.8,648.9,87.8L648.9,87.8z"/>
	<path class="st0" d="M528.4,157.1v222.5c0,5.3-3.3,10.1-8.1,12.1c-75.7,31.1-150.3,46.6-223.4,46.6c-73.2,0-144.8-15.5-214.4-46.7
		c-4.7-2.1-7.7-6.8-7.7-11.9l0-222.5l217.5,60c1.8,0.4,5.1,1.2,9.3,1.2c4.1,0,7.5-0.8,10.4-1.4L528.4,157.1z"/>
</g>
</svg>
