<?xml version="1.0" encoding="utf-8"?>
<!-- Generator: Adobe Illustrator 25.2.0, SVG Export Plug-In . SVG Version: 6.00 Build 0)  -->
<svg version="1.1" id="Calque_1" xmlns="http://www.w3.org/2000/svg" xmlns:xlink="http://www.w3.org/1999/xlink" x="0px" y="0px"
	 viewBox="0 0 400 400" style="enable-background:new 0 0 400 400;" xml:space="preserve">
<style type="text/css">
	.st0{fill:#ffffff;}
</style>
<path class="st0" d="M133.4,265h-9.7c-2.7,0-5.2,1.4-6.7,3.6l-27,40.7l-27-40.8c-1.5-2.2-4-3.5-6.7-3.5h-17
	C17.7,265,0,281.4,0,301.8V392c0,4.5,3.6,8,8,8h33v-48.4c0-5.3,3.6-9.6,8-9.6s8,4.3,8,9.6V400h58.8v-48.4c0-5.3,3.6-9.6,8-9.6
	s8,4.3,8,9.6V400h33c4.4,0,8-3.5,8-8v-90.2C172.7,281.4,155.1,265,133.4,265L133.4,265z"/>
<path class="st0" d="M132.1,209c0,25.2-20.4,45.7-45.7,45.7S40.7,234.3,40.7,209c0-25.2,20.4-45.7,45.7-45.7
	C111.6,163.4,132.1,183.8,132.1,209"/>
<path class="st0" d="M400,97c0,53.5-62.1,97-138.4,97c-6.2,0-23.8-0.4-33-1l-47.1,32.3c-1.4,1-3,1.4-4.6,1.4c-1.3,0-2.6-0.3-3.7-1
	c-2.6-1.4-4.3-4.1-4.3-7v-42.2C138.1,161,123,135,123,97c0-53.4,62.2-97,138.6-97C337.9,0,400,43.5,400,97L400,97z"/>
</svg>
