<?xml version="1.0" encoding="utf-8"?>
<!-- Generator: Adobe Illustrator 25.2.0, SVG Export Plug-In . SVG Version: 6.00 Build 0)  -->
<svg version="1.1" xmlns="http://www.w3.org/2000/svg" xmlns:xlink="http://www.w3.org/1999/xlink" x="0px" y="0px"
	 viewBox="0 0 328.4 175.1" style="enable-background:new 0 0 328.4 175.1;" xml:space="preserve">
<style type="text/css">
	.st0{display:none;}
	.st1{fill:#3B3B3B;}
	.st2{display:none;fill:#5F5E5E;}
	.st3{display:inline;}
	.st4{fill:#5F5E5E;}
	.st5{fill:#E52713;}
</style>
<g id="Calque_2" class="st0">
	
		<image style="display:inline;overflow:visible;" width="200" height="200" xlink:href="90DDEE65.jpg"  transform="matrix(2.234 0 0 2.234 -47.4414 -137.9317)">
	</image>
</g>
<g id="Calque_1">
	<g>
		<path class="st1" d="M46.5,149.1h6v9.5h4.8v-9.5h6v25.5h-6v-10.9h-4.8v10.9h-6V149.1z"/>
		<path class="st1" d="M72.1,149.1h7.5l6.4,25.5h-6.2l-0.9-4.9h-6.1l-0.9,4.9h-6.2L72.1,149.1z M75.7,153.7L75.7,153.7l-2.2,11.4
			h4.4L75.7,153.7z"/>
		<path class="st1" d="M104.3,166.2c0,1.3-0.1,2.4-0.3,3.5c-0.2,1.1-0.6,2-1.3,2.8c-0.6,0.8-1.5,1.4-2.6,1.9
			c-1.1,0.5-2.5,0.7-4.2,0.7c-1.7,0-3.2-0.2-4.3-0.7c-1.1-0.5-1.9-1.1-2.6-1.9c-0.6-0.8-1-1.7-1.2-2.8c-0.2-1.1-0.3-2.3-0.3-3.5
			v-17.1h6v18.8c0,1,0.2,1.8,0.6,2.3c0.4,0.6,1,0.8,1.8,0.8s1.4-0.3,1.8-0.8s0.6-1.3,0.6-2.3v-18.8h6V166.2z"/>
		<path class="st1" d="M111.7,154h-5.4v-4.9h16.7v4.9h-5.4v20.6h-6V154z"/>
		<path class="st1" d="M130.5,166.8v0.9c0,1,0.2,1.8,0.5,2.4c0.3,0.6,1,1,2.1,1c0.5,0,1-0.1,1.3-0.3c0.3-0.2,0.6-0.4,0.8-0.7
			c0.2-0.3,0.4-0.6,0.4-1c0.1-0.4,0.1-0.7,0.1-1.1c0-0.9-0.3-1.6-0.8-2.1c-0.5-0.5-1.2-0.9-2-1.3c-0.8-0.4-1.7-0.7-2.6-1
			c-0.9-0.3-1.8-0.8-2.6-1.4c-0.8-0.6-1.5-1.4-2-2.3c-0.5-1-0.8-2.2-0.8-3.8c0-1,0.1-2,0.4-2.9c0.3-0.9,0.8-1.7,1.4-2.4
			c0.7-0.7,1.5-1.2,2.6-1.6c1.1-0.4,2.4-0.6,3.9-0.6c1.5,0,2.8,0.2,3.8,0.5c1,0.4,1.9,0.9,2.5,1.5c0.6,0.6,1.1,1.4,1.4,2.2
			c0.3,0.8,0.4,1.8,0.4,2.7v0.6h-5.8c0-1.2-0.2-2.1-0.5-2.7c-0.4-0.6-1-0.9-1.8-0.9c-1.6,0-2.4,0.9-2.4,2.8c0,0.9,0.3,1.6,0.8,2.1
			s1.2,0.9,2,1.3c0.8,0.4,1.7,0.7,2.6,1.1c0.9,0.3,1.8,0.8,2.6,1.4c0.8,0.6,1.5,1.3,2,2.2c0.5,0.9,0.8,2.1,0.8,3.6
			c0,1.5-0.2,2.7-0.6,3.7c-0.4,1-1,1.9-1.7,2.5c-0.8,0.7-1.7,1.1-2.7,1.4c-1.1,0.3-2.3,0.4-3.7,0.4c-1.1,0-2.1-0.1-3.2-0.3
			c-1-0.2-1.9-0.5-2.7-1c-0.8-0.5-1.4-1.2-1.9-2c-0.5-0.9-0.7-2-0.7-3.3v-1.6H130.5z"/>
		<path class="st1" d="M144.4,161.8h10.8v4.9h-10.8V161.8z"/>
		<path class="st1" d="M158.6,149.1h8.9c1.5,0,2.8,0.2,3.8,0.6c1.1,0.4,2,1.1,2.6,2c0.7,0.9,1.2,2.2,1.5,3.7
			c0.3,1.5,0.5,3.4,0.5,5.6c0,2.3-0.1,4.3-0.3,6c-0.2,1.7-0.6,3.1-1.3,4.2c-0.6,1.1-1.6,2-2.8,2.5c-1.2,0.5-2.8,0.8-4.7,0.8h-8.3
			V149.1z M164.6,170.2h1.6c0.7,0,1.3-0.1,1.7-0.3c0.5-0.2,0.9-0.6,1.2-1.2c0.3-0.6,0.5-1.5,0.6-2.7c0.1-1.2,0.2-2.7,0.2-4.6
			c0-1.5,0-2.8-0.1-3.9c-0.1-1-0.3-1.8-0.5-2.4c-0.3-0.6-0.6-1-1.1-1.3c-0.5-0.2-1.1-0.4-1.9-0.4h-1.7V170.2z"/>
		<path class="st1" d="M179.5,149.1h14.8v4.9h-8.8v5.1h8.2v4.9h-8.2v5.8h9.1v4.9h-15.1V149.1z"/>
		<path class="st1" d="M197,161.8h10.8v4.9H197V161.8z"/>
		<path class="st1" d="M211.3,149.1H226v4.9h-8.8v5.1h8.2v4.9h-8.2v10.7h-6V149.1z"/>
		<path class="st1" d="M228.8,149.1h10.1c1.3,0,2.4,0.2,3.2,0.6c0.9,0.4,1.6,0.9,2.1,1.5c0.5,0.6,0.9,1.3,1.2,2.1
			c0.2,0.8,0.4,1.6,0.4,2.5c0,1.9-0.4,3.3-1.1,4.2c-0.7,1-1.8,1.6-3.2,2v0.1c1,0.1,1.7,0.4,2.2,0.8s1,0.8,1.2,1.4
			c0.3,0.5,0.4,1.2,0.5,1.9c0.1,0.7,0.1,1.5,0.1,2.4c0,1.3,0.1,2.3,0.1,3c0,0.7,0.1,1.3,0.2,1.7c0.1,0.4,0.2,0.7,0.3,0.8
			c0.1,0.2,0.3,0.3,0.5,0.4v0.3h-6.5c-0.2-0.4-0.4-1-0.5-1.8c-0.1-0.8-0.1-1.9-0.1-3.4c0-1.1,0-2-0.1-2.7c-0.1-0.7-0.2-1.3-0.4-1.6
			c-0.2-0.4-0.4-0.7-0.8-0.8c-0.3-0.1-0.7-0.2-1.2-0.2h-2.3v10.5h-6V149.1z M234.8,159.8h1.9c0.6,0,1.1-0.1,1.5-0.3
			c0.4-0.2,0.7-0.5,0.9-0.8c0.2-0.3,0.4-0.7,0.5-1.1s0.1-0.8,0.1-1.2c0-1-0.2-1.7-0.7-2.3s-1.3-0.9-2.4-0.9h-1.8V159.8z"/>
		<path class="st1" d="M254.4,149.1h7.5l6.4,25.5H262l-0.9-4.9H255l-0.9,4.9h-6.2L254.4,149.1z M258,153.7L258,153.7l-2.2,11.4h4.4
			L258,153.7z"/>
		<path class="st1" d="M270.5,149.1h6.9l4.9,16.6h0.1v-16.6h5.6v25.5h-6.8l-5.2-17.6h-0.1v17.6h-5.4V149.1z"/>
		<path class="st1" d="M302.7,158c0-1.9-0.2-3.2-0.5-4.1c-0.3-0.9-1-1.3-2-1.3c-0.6,0-1.1,0.2-1.4,0.5c-0.3,0.3-0.6,0.8-0.8,1.5
			c-0.2,0.7-0.3,1.6-0.3,2.8c0,1.1-0.1,2.5-0.1,4.2c0,1.9,0,3.5,0.1,4.7c0,1.2,0.2,2.2,0.4,2.9c0.2,0.7,0.5,1.2,0.8,1.5
			c0.4,0.3,0.9,0.4,1.5,0.4c0.5,0,1-0.2,1.3-0.5c0.3-0.3,0.6-0.7,0.7-1.3c0.2-0.6,0.3-1.2,0.4-2c0.1-0.8,0.1-1.7,0.1-2.7h5.8v0.9
			c0,1.4-0.1,2.7-0.4,3.8c-0.2,1.2-0.7,2.2-1.3,3c-0.7,0.9-1.6,1.5-2.7,2c-1.2,0.5-2.7,0.7-4.5,0.7c-1.9,0-3.4-0.3-4.5-1
			c-1.1-0.7-1.9-1.6-2.5-2.8c-0.6-1.2-0.9-2.6-1.1-4.3c-0.1-1.6-0.2-3.4-0.2-5.3c0-1.6,0.1-3.2,0.2-4.8c0.1-1.6,0.5-3,1.1-4.2
			c0.6-1.2,1.5-2.2,2.6-3c1.2-0.8,2.8-1.1,5-1.1c2.6,0,4.7,0.6,6.1,1.9c1.4,1.3,2.1,3.4,2.1,6.4v1.1H302.7z"/>
		<path class="st1" d="M311.6,149.1h14.8v4.9h-8.8v5.1h8.2v4.9h-8.2v5.8h9.1v4.9h-15.1V149.1z"/>
	</g>
	<path class="st2" d="M376.3,2.5h2.8v22.5h-2.8V2.5z"/>
	<path class="st2" d="M382.7,2.5h3.6l7.4,18.8h0.1V2.5h2.8v22.5h-3.8l-7.2-18.2h-0.1v18.2h-2.8V2.5z"/>
	<path class="st2" d="M409.9,8.3c0-2.4-0.9-4-3.5-4c-2.3,0-3.7,1.3-3.7,3.7c0,6.3,10.6,2.6,10.6,10.8c0,5.2-3.8,6.7-7,6.7
		c-5.3,0-6.8-2.7-6.8-7.5h2.8c0,2.5,0.2,5.2,4.2,5.2c2.2,0,3.9-1.6,3.9-4c0-6.4-10.6-2.7-10.6-10.9c0-2.1,0.9-6.2,6.6-6.2
		c4.3,0,6.2,2.1,6.3,6.3H409.9z"/>
	<path class="st2" d="M423,24.9h-2.8v-20h-5.6V2.5h14.1v2.5H423V24.9z"/>
	<path class="st2" d="M431,2.5h2.8v22.5H431V2.5z"/>
	<path class="st2" d="M444.6,24.9h-2.8v-20h-5.6V2.5h14.1v2.5h-5.7V24.9z"/>
	<path class="st2" d="M452.5,2.5h2.8v15.8c0,3.3,1.1,4.9,3.8,4.9c3,0,3.8-1.7,3.8-4.9V2.5h2.8v15.8c0,4.3-2.2,7.1-6.6,7.1
		c-4.5,0-6.6-2.5-6.6-7.1V2.5z"/>
	<path class="st2" d="M476.3,24.9h-2.8v-20h-5.6V2.5H482v2.5h-5.7V24.9z"/>
	<path class="st2" d="M491.6,2.5h3.6l7.4,18.8h0.1V2.5h2.8v22.5h-3.8l-7.2-18.2h-0.1v18.2h-2.8V2.5z"/>
	<path class="st2" d="M514.1,2.5h3.7l6,22.5H521l-1.6-6.2h-7.2l-1.7,6.2h-2.9L514.1,2.5z M512.7,16.5h6l-2.9-10.9h-0.1L512.7,16.5z"
		/>
	<path class="st2" d="M530.9,24.9h-2.8v-20h-5.6V2.5h14.1v2.5h-5.7V24.9z"/>
	<path class="st2" d="M538.9,2.5h2.8v22.5h-2.8V2.5z"/>
	<path class="st2" d="M559.4,13.7c0,5.7-1,11.7-7.2,11.7c-6.2,0-7.2-6-7.2-11.7C545,8,546,2,552.2,2C558.4,2,559.4,8,559.4,13.7z
		 M547.9,13.7c0,5.2,0.5,9.4,4.3,9.4c3.8,0,4.3-4.2,4.3-9.4s-0.5-9.4-4.3-9.4C548.4,4.3,547.9,8.5,547.9,13.7z"/>
	<path class="st2" d="M562.7,2.5h3.6l7.4,18.8h0.1V2.5h2.8v22.5h-3.8l-7.2-18.2h-0.1v18.2h-2.8V2.5z"/>
	<path class="st2" d="M585.2,2.5h3.7l6,22.5h-2.9l-1.6-6.2h-7.2l-1.7,6.2h-2.9L585.2,2.5z M583.9,16.5h6L587,5.6H587L583.9,16.5z"/>
	<path class="st2" d="M597.1,2.5h2.8v20h9.1v2.5h-11.9V2.5z"/>
	<path class="st2" d="M376.6,37.5h6c7,0,7.9,5,7.9,11.2c0,5.7-1.4,11.2-7.6,11.2h-6.3V37.5z M379.3,57.7h2.9c4.8,0,5.3-4.9,5.3-8.9
		c0-4.3-0.3-9-5.3-9h-2.9V57.7z"/>
	<path class="st2" d="M393.7,37.5h11.6v2.5h-8.9V47h8.3v2.5h-8.3v8.1h9.2v2.5h-12V37.5z"/>
	<path class="st2" d="M417.9,43.3c0-2.4-0.9-4-3.5-4c-2.3,0-3.7,1.3-3.7,3.7c0,6.3,10.6,2.6,10.6,10.8c0,5.2-3.8,6.7-7,6.7
		c-5.3,0-6.8-2.7-6.8-7.5h2.8c0,2.5,0.2,5.2,4.2,5.2c2.2,0,3.9-1.6,3.9-4c0-6.4-10.6-2.7-10.6-10.9c0-2.1,0.9-6.2,6.6-6.2
		c4.3,0,6.2,2.1,6.3,6.3H417.9z"/>
	<path class="st2" d="M441.2,43.3c0-2.4-0.8-4-3.5-4c-2.3,0-3.7,1.3-3.7,3.7c0,6.3,10.6,2.6,10.6,10.8c0,5.2-3.8,6.7-7,6.7
		c-5.3,0-6.8-2.7-6.8-7.5h2.8c0,2.5,0.2,5.2,4.2,5.2c2.2,0,3.9-1.6,3.9-4c0-6.4-10.6-2.7-10.6-10.9c0-2.1,0.9-6.2,6.6-6.2
		c4.3,0,6.2,2.1,6.3,6.3H441.2z"/>
	<path class="st2" d="M461.2,52.2c-0.3,4.3-1.9,8.2-6.8,8.2c-6.4,0-7.2-6-7.2-11.7c0-5.7,1-11.7,7.2-11.7c4.6,0,6.5,2.6,6.6,7h-2.9
		c-0.1-2.6-0.9-4.7-3.7-4.7c-3.8,0-4.3,4.2-4.3,9.4s0.5,9.4,4.3,9.4c3.4,0,3.8-3.2,3.9-5.9H461.2z"/>
	<path class="st2" d="M463.8,37.5h2.8v22.5h-2.8V37.5z"/>
	<path class="st2" d="M470.3,37.5h11.6v2.5h-8.8V47h8.3v2.5h-8.3v8.1h9.2v2.5h-12V37.5z"/>
	<path class="st2" d="M484.9,37.5h3.6l7.4,18.8h0.1V37.5h2.8v22.5h-3.8l-7.2-18.2h-0.1v18.2h-2.8V37.5z"/>
	<path class="st2" d="M516.1,52.2c-0.3,4.3-1.9,8.2-6.8,8.2c-6.4,0-7.2-6-7.2-11.7c0-5.7,1-11.7,7.2-11.7c4.6,0,6.5,2.6,6.6,7H513
		c-0.1-2.6-0.9-4.7-3.7-4.7c-3.8,0-4.3,4.2-4.3,9.4s0.5,9.4,4.3,9.4c3.4,0,3.8-3.2,3.9-5.9H516.1z"/>
	<path class="st2" d="M518.8,37.5h11.6v2.5h-8.8V47h8.3v2.5h-8.3v8.1h9.2v2.5h-12V37.5z"/>
	<path class="st2" d="M543,43.3c0-2.4-0.8-4-3.5-4c-2.3,0-3.7,1.3-3.7,3.7c0,6.3,10.6,2.6,10.6,10.8c0,5.2-3.8,6.7-7,6.7
		c-5.3,0-6.8-2.7-6.8-7.5h2.8c0,2.5,0.2,5.2,4.2,5.2c2.2,0,3.9-1.6,3.9-4c0-6.4-10.6-2.7-10.6-10.9c0-2.1,0.9-6.2,6.6-6.2
		c4.3,0,6.2,2.1,6.3,6.3H543z"/>
	<path class="st2" d="M380.7,72.5h3.7l6,22.5h-2.9l-1.6-6.2h-7.2l-1.7,6.2h-2.9L380.7,72.5z M379.3,86.5h6l-2.9-10.9h-0.1
		L379.3,86.5z"/>
	<path class="st2" d="M392.6,72.5h5.7c2,0,7,0,7,6.5c0,4.2-2.7,6.5-6.5,6.5h-3.4v9.5h-2.8V72.5z M395.3,83.2h3.3
		c2,0,3.7-1.4,3.7-4.4c0-2.5-1.2-4.1-3.9-4.1h-3.1V83.2z"/>
	<path class="st2" d="M407.8,72.5h5.7c2,0,7,0,7,6.5c0,4.2-2.7,6.5-6.5,6.5h-3.4v9.5h-2.8V72.5z M410.6,83.2h3.3
		c2,0,3.7-1.4,3.7-4.4c0-2.5-1.2-4.1-3.9-4.1h-3.1V83.2z"/>
	<path class="st2" d="M423,72.5h2.8v20h9.1v2.5H423V72.5z"/>
	<path class="st2" d="M437.3,72.5h2.8v22.5h-2.8V72.5z"/>
	<path class="st2" d="M454.5,94.2c-1,0.7-2.3,1.1-3.9,1.1c-6.2,0-7.2-6-7.2-11.7c0-5.7,1-11.7,7.2-11.7c6.2,0,7.2,6,7.2,11.7
		c0,3.2-0.3,6.6-1.8,8.9l2.3,2.1l-1.5,1.6L454.5,94.2z M450.5,90.6l1.5-1.7l2.1,1.9c0.7-1.7,0.8-4.3,0.8-7.1c0-5.2-0.5-9.4-4.3-9.4
		c-3.8,0-4.3,4.2-4.3,9.4c0,5.2,0.5,9.4,4.3,9.4c0.8,0,1.5-0.2,2-0.5L450.5,90.6z"/>
	<path class="st2" d="M460.9,72.5h2.8v15.8c0,3.3,1.1,4.9,3.8,4.9c3,0,3.8-1.7,3.8-4.9V72.5h2.8v15.8c0,4.3-2.2,7.1-6.6,7.1
		c-4.5,0-6.6-2.5-6.6-7.1V72.5z"/>
	<path class="st2" d="M477.7,72.5h11.6v2.5h-8.8V82h8.3v2.5h-8.3v8.1h9.2v2.5h-12V72.5z M484.2,66.8h3.1l-3.4,4.5H482L484.2,66.8z"
		/>
	<path class="st2" d="M492.3,72.5h11.6v2.5h-8.8V82h8.3v2.5h-8.3v8.1h9.2v2.5h-12V72.5z"/>
	<path class="st2" d="M516.5,78.3c0-2.4-0.8-4-3.5-4c-2.3,0-3.7,1.3-3.7,3.7c0,6.3,10.6,2.6,10.6,10.8c0,5.2-3.8,6.7-7,6.7
		c-5.3,0-6.8-2.7-6.8-7.5h2.8c0,2.5,0.2,5.2,4.2,5.2c2.2,0,3.9-1.6,3.9-4c0-6.4-10.6-2.7-10.6-10.9c0-2.1,0.9-6.2,6.6-6.2
		c4.3,0,6.2,2.1,6.3,6.3H516.5z"/>
	<g class="st0">
		<g class="st3">
			<line class="st4" x1="352.3" y1="2.4" x2="352.3" y2="130"/>
			<rect x="351" y="2.4" class="st4" width="2.5" height="127.5"/>
		</g>
	</g>
	<g>
		<rect y="2.5" class="st5" width="33.4" height="127.5"/>
		<polygon class="st5" points="79.8,2.5 101.3,81.1 101.7,81.1 101.7,2.5 132.9,2.5 132.9,130 96.3,130 74.1,51.3 73.7,51.3 
			73.7,130 42.5,130 42.5,2.5 		"/>
		<path class="st5" d="M193.2,36.3c0-3.8-0.8-7.1-2.3-9.7c-1.6-2.7-4-4-7.2-4c-3.6,0-6.2,1.2-7.9,3.5c-1.7,2.3-2.5,4.9-2.5,7.8
			c0,4.2,1.3,7.5,4,9.9c2.7,2.4,6.1,4.5,10.1,6.3c4.1,1.8,8.4,3.6,13.1,5.4c4.7,1.9,9,4.3,13.1,7.2c4.1,3,7.4,6.9,10.1,11.7
			c2.7,4.8,4,11.1,4,18.8c0,13.6-3.9,23.4-11.7,29.5c-7.8,6.1-19,9.2-33.7,9.2c-6.9,0-13.1-0.6-18.4-1.7c-5.3-1.1-9.8-3.1-13.4-5.9
			c-3.6-2.8-6.4-6.5-8.3-11c-1.9-4.5-2.9-10.1-2.9-16.8v-4.5h32.3v3c0,5.5,1,9.3,3,11.5c2,2.2,4.7,3.3,7.9,3.3c3.5,0,6.1-1.2,8-3.6
			c1.8-2.4,2.8-5.3,2.8-8.8c0-4.2-1.3-7.5-3.9-9.9c-2.6-2.4-5.8-4.5-9.7-6.3c-3.9-1.7-8.1-3.5-12.6-5.3c-4.6-1.8-8.8-4.1-12.7-7
			c-3.9-2.9-7.1-6.6-9.7-11.3c-2.6-4.6-3.9-10.7-3.9-18.2c0-13,3.5-22.9,10.4-29.6C158.3,3.4,168.8,0,182.9,0
			c14.6,0,25.1,3.1,31.7,9.4c6.5,6.2,9.8,16.2,9.8,29.9h-31.2V36.3z"/>
		<path class="st5" d="M297.2,2.5L328.4,130h-35.5l-3.4-22.3h-26.5l-3.4,22.3h-35L255.2,2.5H297.2z M276,28.6l-9.1,54.1h18.7
			l-9.2-54.1H276z"/>
	</g>
	<polygon class="st4" points="305.8,2.4 328.4,2.4 328.4,98.2 	"/>
</g>
</svg>
