<?xml version="1.0" encoding="utf-8"?>
<!-- Generator: Adobe Illustrator 25.2.0, SVG Export Plug-In . SVG Version: 6.00 Build 0)  -->
<svg version="1.1" id="Calque_1" xmlns="http://www.w3.org/2000/svg" xmlns:xlink="http://www.w3.org/1999/xlink" x="0px" y="0px"
	viewBox="0 0 453.54 150.24" style="enable-background:new 0 0 453.54 150.24;" xml:space="preserve">
<style type="text/css">
	.st0{fill:#3AA847;}
	.st1{fill:#00A8E2;}
	.st2{fill:#FFFFFF;}
</style>
<rect x="14.17" y="13.74" class="st0" width="245.55" height="122.75"/>
<polygon class="st1" points="413.71,118.41 363.08,61.53 390.55,32.37 380.47,32.37 355.52,58.77 355.52,32.37 342.44,32.37 
	342.44,62.25 342.44,88.53 342.44,118.53 355.52,118.53 355.52,89.49 381.19,118.41 "/>
<path class="st1" d="M298.38,32.43l-33.47,86.18h16.08l6.73-17.36h21.24l6.26,17.36l19.92,0l-30.96-86.18L298.38,32.43z M290,77.13
	l8.64-22.32l8.64,22.32H290z"/>
<polygon class="st2" points="239.88,32.37 239.88,76.29 208.2,32.37 199.8,32.37 199.8,118.41 208.2,118.41 208.2,71.49 
	241.72,118.53 248.28,118.53 248.28,32.37 "/>
<path class="st2" d="M188.64,49.89c0,2.64,0,9.24,0,14.64c0,2.76,0,5.16,0,6.6c0,9.72-9.36,17.52-20.88,17.52h-7.2v29.88h-13.08
	V32.37h20.28c6.6,0,12.48,2.64,16.32,6.6C186.96,41.97,188.64,45.81,188.64,49.89z M163.93,38.97h-3.24v25.56h3.24
	c5.64,0,10.32-4.56,10.32-10.32c0-1.92,0-3,0-4.92C174.24,43.65,169.57,38.97,163.93,38.97z"/>
<polygon class="st2" points="136.09,56.01 136.09,32.37 96.01,32.37 96.01,118.53 136.09,118.53 136.09,111.57 109.09,111.57 
	109.09,85.29 131.89,85.29 131.89,78.33 109.09,78.33 109.09,56.01 "/>
</svg>
