<?xml version="1.0" encoding="utf-8"?>
<!-- Generator: Adobe Illustrator 25.2.0, SVG Export Plug-In . SVG Version: 6.00 Build 0)  -->
<svg version="1.1" id="Calque_1" xmlns="http://www.w3.org/2000/svg" xmlns:xlink="http://www.w3.org/1999/xlink" x="0px" y="0px"
	 viewBox="0 0 399.9 399.9" style="enable-background:new 0 0 399.9 399.9;" xml:space="preserve">
<style type="text/css">
	.st0{fill:#ffffff;}
</style>
<path class="st0" d="M387.9,329.8L292,234.1c34.2-59.8,25.9-137.4-25-188.3c-61-61-160.2-61-221.3,0c-61,61-61,160.2,0,221.3
	c30.5,30.5,70.6,45.8,110.6,45.8c26.9,0,53.7-7,77.7-20.7l95.8,95.8c8,8,18.5,12,29,12c10.6,0,21-4,29-12
	C403.9,371.8,403.9,345.8,387.9,329.8L387.9,329.8z M268.2,241.1c-0.9,1.1-1.6,2.3-2.6,3.4c-2.1,2.6-4.3,5-6.6,7.4
	c-1.1,1.3-2.2,2.6-3.4,3.8c-1,1-2.1,1.8-3.1,2.8c-2.7,2.5-5.4,5-8.3,7.4c-0.7,0.6-1.4,1-2.2,1.6c-3.2,2.5-6.6,4.9-10.1,7.1
	c-54.3,34.8-127.5,28.6-175-18.9c-54.8-54.8-54.8-143.9,0-198.7c27.4-27.4,63.4-41,99.4-41s71.9,13.7,99.4,41
	c47.4,47.5,53.7,120.7,18.9,175.1C272.6,235.1,270.5,238.1,268.2,241.1L268.2,241.1z"/>
<path class="st0" d="M246.1,228.2c2.4-2.4,3-6.1,1.5-9.1l-11.4-23.4c1.7-3.4,3.1-6.9,4.4-10.6l24.6-8.6c3.3-1.1,5.4-4.2,5.4-7.5
	v-25.3c0-3.4-2.2-6.4-5.4-7.5l-24.6-8.6c-1.2-3.6-2.6-7.1-4.3-10.6l11.4-23.4c1.5-3,0.9-6.7-1.5-9.1l-17.9-17.9
	c-2.4-2.4-6.1-3-9.1-1.6l-23.5,11.4c-3.4-1.7-7-3.1-10.6-4.3l-8.5-24.6c-1.1-3.3-4.2-5.4-7.5-5.4h-25.3c-3.4,0-6.5,2.2-7.5,5.4
	l-8.5,24.6c-3.6,1.2-7.2,2.6-10.6,4.3L93.7,65c-3-1.4-6.7-0.8-9.1,1.6L66.7,84.5c-2.4,2.4-3,6.1-1.5,9.1L76.6,117
	c-1.7,3.4-3.2,7-4.3,10.6l-24.7,8.6c-3.2,1.1-5.4,4.2-5.4,7.5V169c0,3.4,2.2,6.4,5.4,7.5l24.6,8.6c1.2,3.7,2.7,7.2,4.4,10.6
	l-11.4,23.5c-1.5,3-0.9,6.7,1.5,9.1l17.9,17.9c2.4,2.4,6.1,3,9.1,1.5l23.4-11.4c3.4,1.7,7,3.1,10.6,4.3l8.6,24.6
	c1.1,3.3,4.1,5.4,7.5,5.4h25.3c3.4,0,6.4-2.2,7.5-5.4l8.6-24.6c3.6-1.2,7.1-2.6,10.6-4.3l23.4,11.4c3,1.5,6.7,0.9,9.1-1.5
	L246.1,228.2z M156.4,207.8c-28.4,0-51.5-23.1-51.5-51.5s23.1-51.5,51.5-51.5s51.5,23.1,51.5,51.5S184.8,207.8,156.4,207.8z"/>
</svg>
