<?xml version="1.0" encoding="utf-8"?>
<!-- Generator: Adobe Illustrator 25.2.0, SVG Export Plug-In . SVG Version: 6.00 Build 0)  -->
<svg version="1.1" id="Calque_1" xmlns="http://www.w3.org/2000/svg" xmlns:xlink="http://www.w3.org/1999/xlink" x="0px" y="0px"
	 viewBox="0 0 700 700" style="enable-background:new 0 0 700 700;" xml:space="preserve">
<style type="text/css">
	.st0{fill:#436C7C;}
</style>
<path class="st0" d="M126.7,556.8c-14,2.4-85.1,15.2-105.6,35.6c-23.6,23.6-23.6,62.2,0,85.8C32.9,690,48.5,696,63.9,696
	s31.2-6,42.8-17.8c20.5-20.4,33.2-91.4,35.6-105.5c0.7-4.5-0.7-8.9-3.8-12C135.5,557.6,131,556.3,126.7,556.8L126.7,556.8z"/>
<path class="st0" d="M341,666.2c2.6,2.6,6.2,3.9,9.8,3.9c3.4,0,7-1.4,9.6-3.9c49.5-49.5,77.2-113.4,76.9-172.1
	c-62.8,47.1-124.3,79.6-175.3,92.8L341,666.2z"/>
<path class="st0" d="M686.7,15.2c-2.9-3.1-7-4.5-11.1-3.9c-1.9,0.2-50.3,5.3-116.4,26.9c-3.6,1.2-6.5,3.8-8,7.2
	c-1.7,3.4-1.7,7.2-0.3,10.8c8.2,21.6,20.9,40.9,37.5,57.7c16.8,16.6,36.1,29.3,57.7,37.5c1.5,0.7,3.3,1,5,1c2.1,0,3.9-0.3,5.8-1.4
	c3.4-1.7,5.8-4.5,7.2-8c21.6-66.1,26.7-114.6,26.9-116.4C691.1,22.2,689.7,18.1,686.7,15.2L686.7,15.2z"/>
<path class="st0" d="M114.8,440c6.5-25.2,17.6-52.7,33.4-82.9c16.1-30.5,36.8-62.5,61.3-94.9c-59.8-2.1-125.5,25.9-176.5,76.7
	c-5.3,5.3-5.3,14,0,19.3L114.8,440z"/>
<path class="st0" d="M635.6,176.7c-24.8-9.4-47.3-24.1-66.8-43.5c-19.5-19.7-34.2-42.3-43.8-67.5c-1.7-4.8-2.6-9.8-2.6-14.7
	c-62.7,24-139.6,63.5-203.8,127.7c-30,30-57.9,61.8-83.2,94.7c-25.3,33-46.7,65.8-63,96.6s-27.7,59.8-33.4,85.3
	c-3.9,18-5.1,34.4-3.3,48.6c0.3,3.1,1.7,5.8,3.9,8l50.2,50.2c2.2,2.1,5,3.4,7.9,3.8c4.5,0.5,9.1,0.9,13.9,0.9
	c10.8,0,22.4-1.4,34.6-4.1c50.7-11,114.7-44.9,180.6-95.2c32.5-25,65.1-53.3,96.2-84.4c64-64,103.8-141.1,127.7-203.6
	C645.4,179.6,640.3,178.5,635.6,176.7L635.6,176.7z M499.9,290.7c-12.2,12.2-28.3,18.2-44.2,18.2c-16.1,0-32.2-6-44.3-18.2
	c-11.8-12-18.2-27.6-18.2-44.2c0-16.8,6.5-32.5,18.2-44.3c24.5-24.3,64-24.3,88.7,0c12.2,12.3,18.2,28.3,18.2,44.3
	C518,262.3,512,278.5,499.9,290.7z"/>
</svg>
