<?xml version="1.0" encoding="utf-8"?>
<!-- Generator: Adobe Illustrator 25.2.0, SVG Export Plug-In . SVG Version: 6.00 Build 0)  -->
<svg version="1.1" id="Calque_1" xmlns="http://www.w3.org/2000/svg" xmlns:xlink="http://www.w3.org/1999/xlink" x="0px" y="0px"
	 viewBox="-77.9 0 399.9 399.9" style="enable-background:new 0 0 244.1 399.9;" xml:space="preserve" fill="#ffffff">
<path d="M118.6,253.4c-26.8,0-51.8-8-72.8-21.6L28.9,391.1c-0.3,3.2,1.3,6.2,4.1,7.8c1.2,0.6,2.6,1,3.9,1c1.8,0,3.4-0.6,5-1.7
	l76.7-60.5l76.8,60.5c2.6,2,6,2.2,8.8,0.7c2.9-1.6,4.5-4.6,4.1-7.8l-16.9-159.3C170.4,245.5,145.4,253.5,118.6,253.4L118.6,253.4z"
	/>
<path d="M118.6,0C53.2,0,0,53.3,0,118.7s53.2,118.7,118.6,118.7s118.6-53.3,118.6-118.7S184,0,118.6,0z M184.7,110.9l-27.2,26.5
	l6.4,37.4c0.5,3-0.7,6-3.2,7.8s-5.7,2-8.4,0.6l-33.7-17.7L85,183.2c-1.2,0.6-2.5,1-3.8,1c-1.7,0-3.3-0.6-4.7-1.5
	c-2.5-1.8-3.7-4.9-3.2-7.8l6.5-37.4l-27.3-26.6c-2.2-2.2-3-5.4-2-8.2s3.4-5,6.5-5.4l37.6-5.4l16.9-34.1c2.6-5.5,11.6-5.5,14.3,0
	l16.8,34.1l37.7,5.4c3,0.5,5.5,2.6,6.4,5.4C187.6,105.5,186.8,108.7,184.7,110.9L184.7,110.9z"/>
</svg>
